<svg width="24" height="24" viewBox="0 0 24 24" fill="none" xmlns="http://www.w3.org/2000/svg">
<path d="M8 0.5H16C20.1421 0.5 23.5 3.85786 23.5 8V16C23.5 20.1421 20.1421 23.5 16 23.5H8C3.85786 23.5 0.5 20.1421 0.5 16V8C0.5 3.85786 3.85786 0.5 8 0.5Z" stroke="#A6B0BE" stroke-opacity="0.3" stroke-linecap="round"/>
<path d="M12 12.5625C12.3107 12.5625 12.5625 12.3107 12.5625 12C12.5625 11.6893 12.3107 11.4375 12 11.4375C11.6893 11.4375 11.4375 11.6893 11.4375 12C11.4375 12.3107 11.6893 12.5625 12 12.5625Z" fill="white"/>
<path d="M12 9.375C12.3107 9.375 12.5625 9.12316 12.5625 8.8125C12.5625 8.50184 12.3107 8.25 12 8.25C11.6893 8.25 11.4375 8.50184 11.4375 8.8125C11.4375 9.12316 11.6893 9.375 12 9.375Z" fill="white"/>
<path d="M12 15.75C12.3107 15.75 12.5625 15.4982 12.5625 15.1875C12.5625 14.8768 12.3107 14.625 12 14.625C11.6893 14.625 11.4375 14.8768 11.4375 15.1875C11.4375 15.4982 11.6893 15.75 12 15.75Z" fill="white"/>
</svg>
