<svg width="81" height="81" viewBox="0 0 81 81" fill="none" xmlns="http://www.w3.org/2000/svg">
<g filter="url(#filter0_d_2597_13583)">
<rect x="20" y="20" width="41" height="41" rx="20.5" fill="#2A313A"/>
<path d="M49.2429 48.7148H31.5V52.0006H49.2429V48.7148Z" fill="#FCB813"/>
<path d="M43.7704 35.6826L42.0489 35.1895C41.2736 34.9705 40.5674 34.5557 39.9978 33.9849C39.4282 33.4141 39.0143 32.7063 38.7958 31.9294L38.3038 30.2041C38.279 30.1437 38.2369 30.0921 38.1829 30.0557C38.1288 30.0194 38.0651 30 38 30C37.9349 30 37.8712 30.0194 37.8171 30.0557C37.7631 30.0921 37.721 30.1437 37.6962 30.2041L37.2043 31.9294C36.9857 32.7063 36.5718 33.4141 36.0022 33.9849C35.4326 34.5557 34.7264 34.9705 33.9512 35.1895L32.2296 35.6826C32.1634 35.7014 32.1053 35.7413 32.0638 35.7962C32.0224 35.8512 32 35.9181 32 35.987C32 36.0559 32.0224 36.1229 32.0638 36.1778C32.1053 36.2327 32.1634 36.2726 32.2296 36.2914L33.9512 36.7845C34.7264 37.0035 35.4326 37.4183 36.0022 37.9891C36.5718 38.5599 36.9857 39.2677 37.2043 40.0446L37.6962 41.7699C37.715 41.8362 37.7548 41.8945 37.8096 41.936C37.8644 41.9775 37.9313 42 38 42C38.0687 42 38.1356 41.9775 38.1904 41.936C38.2452 41.8945 38.285 41.8362 38.3038 41.7699L38.7958 40.0446C39.0143 39.2677 39.4282 38.5599 39.9978 37.9891C40.5674 37.4183 41.2736 37.0035 42.0489 36.7845L43.7704 36.2914C43.8366 36.2726 43.8947 36.2327 43.9362 36.1778C43.9776 36.1229 44 36.0559 44 35.987C44 35.9181 43.9776 35.8512 43.9362 35.7962C43.8947 35.7413 43.8366 35.7014 43.7704 35.6826Z" fill="#F7F8F9"/>
<path d="M48.847 41.7884L47.6992 41.4597C47.1824 41.3137 46.7116 41.0371 46.3319 40.6566C45.9521 40.2761 45.6762 39.8042 45.5305 39.2863L45.2025 38.136C45.186 38.0958 45.158 38.0614 45.1219 38.0372C45.0858 38.0129 45.0434 38 45 38C44.9566 38 44.9142 38.0129 44.8781 38.0372C44.842 38.0614 44.814 38.0958 44.7975 38.136L44.4695 39.2863C44.3238 39.8042 44.0479 40.2761 43.6681 40.6566C43.2884 41.0371 42.8176 41.3137 42.3008 41.4597L41.153 41.7884C41.109 41.8009 41.0702 41.8275 41.0426 41.8641C41.0149 41.9008 41 41.9454 41 41.9913C41 42.0372 41.0149 42.0819 41.0426 42.1185C41.0702 42.1552 41.109 42.1818 41.153 42.1943L42.3008 42.523C42.8176 42.669 43.2884 42.9455 43.6681 43.3261C44.0479 43.7066 44.3238 44.1784 44.4695 44.6964L44.7975 45.8466C44.81 45.8908 44.8365 45.9297 44.8731 45.9573C44.9096 45.985 44.9542 46 45 46C45.0458 46 45.0904 45.985 45.1269 45.9573C45.1635 45.9297 45.19 45.8908 45.2025 45.8466L45.5305 44.6964C45.6762 44.1784 45.9521 43.7066 46.3319 43.3261C46.7116 42.9455 47.1824 42.669 47.6992 42.523L48.847 42.1943C48.891 42.1818 48.9298 42.1552 48.9574 42.1185C48.9851 42.0819 49 42.0372 49 41.9913C49 41.9454 48.9851 41.9008 48.9574 41.8641C48.9298 41.8275 48.891 41.8009 48.847 41.7884Z" fill="#F7F8F9"/>
</g>
<defs>
<filter id="filter0_d_2597_13583" x="0" y="0" width="81" height="81" filterUnits="userSpaceOnUse" color-interpolation-filters="sRGB">
<feFlood flood-opacity="0" result="BackgroundImageFix"/>
<feColorMatrix in="SourceAlpha" type="matrix" values="0 0 0 0 0 0 0 0 0 0 0 0 0 0 0 0 0 0 127 0" result="hardAlpha"/>
<feOffset/>
<feGaussianBlur stdDeviation="10"/>
<feColorMatrix type="matrix" values="0 0 0 0 0.0588235 0 0 0 0 0.0666667 0 0 0 0 0.0784314 0 0 0 0.16 0"/>
<feBlend mode="normal" in2="BackgroundImageFix" result="effect1_dropShadow_2597_13583"/>
<feBlend mode="normal" in="SourceGraphic" in2="effect1_dropShadow_2597_13583" result="shape"/>
</filter>
</defs>
</svg>
