<svg width="208" height="30" viewBox="33 0 208 30" fill="none" xmlns="http://www.w3.org/2000/svg">
<path d="M189.081 23.1035H168.249V28.5675H189.081V23.1035Z" fill="#FCB813"/>
<path d="M181.847 9.35786L189.081 17.6396H182.42L178.481 13.0368L174.542 17.6396H168.249L175.463 9.44983L168.434 1.53184H175.115L178.849 5.87962L182.584 1.53184H188.897L181.847 9.35786Z" fill="#231F20"/>
<path d="M41.2435 7.38383V12.7443H56.9307V19.1393H41.2435V29.0844H33.9999V0.918328H60.0192V7.40734H41.2435V7.38383Z" fill="#231F20"/>
<path d="M87.7718 22.4779V29.0845H63.7967V0.918454H71.0403V22.4779H87.7718Z" fill="#231F20"/>
<path d="M89.0388 14.9999C89.0388 5.45452 95.3936 0 105.237 0C115.08 0 121.457 5.47804 121.457 14.9999C121.457 24.5219 115.058 29.9999 105.237 29.9999C95.3936 29.9999 89.0388 24.5454 89.0388 14.9999ZM114.08 14.9999C114.08 9.68649 110.703 6.67709 105.237 6.67709C99.8153 6.67709 96.3935 9.68649 96.3935 14.9999C96.3935 20.3134 99.7709 23.3228 105.237 23.3228C110.703 23.3228 114.08 20.3134 114.08 14.9999Z" fill="#231F20"/>
<path d="M166.343 0.918454L157.299 29.0845H150.1L144.323 9.47642L138.501 29.0845H131.369L122.281 0.918454H129.702L135.124 20.2679L141.057 0.918454H147.722L153.655 20.2679L159.077 0.918454H166.343Z" fill="#231F20"/>
<path d="M193.445 27.7931C193.445 26.8762 194.089 26.1943 195.044 26.1943C196 26.1943 196.644 26.8762 196.644 27.7931C196.644 28.71 196 29.3918 195.044 29.3918C194.089 29.4153 193.445 28.7335 193.445 27.7931Z" fill="#231F20"/>
<path d="M225.818 20.7617H206.998L202.621 29.0845H200.421L215.331 0.918454H217.53L232.44 29.0845H230.24L225.818 20.7617ZM224.818 18.8338L216.375 2.84634L207.976 18.8338H224.818Z" fill="#231F20"/>
<path d="M238.019 29.0845V0.918454H239.996V29.0845H238.019Z" fill="#231F20"/>
</svg>
