<svg width="24" height="24" viewBox="0 0 24 24" fill="none" xmlns="http://www.w3.org/2000/svg">
<rect width="24" height="24" rx="4.92308" fill="#2A313A"/>
<rect x="0.5" y="0.5" width="23" height="23" rx="4.42308" stroke="white" stroke-opacity="0.4"/>
<path d="M8.25 17.5C9.2165 17.5 10 16.7165 10 15.75C10 14.7835 9.2165 14 8.25 14C7.2835 14 6.5 14.7835 6.5 15.75C6.5 16.7165 7.2835 17.5 8.25 17.5Z" stroke="white" stroke-linecap="round" stroke-linejoin="round"/>
<path d="M15.75 10C16.7165 10 17.5 9.2165 17.5 8.25C17.5 7.2835 16.7165 6.5 15.75 6.5C14.7835 6.5 14 7.2835 14 8.25C14 9.2165 14.7835 10 15.75 10Z" stroke="white" stroke-linecap="round" stroke-linejoin="round"/>
<path d="M8.25 10C9.2165 10 10 9.2165 10 8.25C10 7.2835 9.2165 6.5 8.25 6.5C7.2835 6.5 6.5 7.2835 6.5 8.25C6.5 9.2165 7.2835 10 8.25 10Z" stroke="white" stroke-linecap="round" stroke-linejoin="round"/>
<path d="M8.25001 14V13.5C8.24919 13.3028 8.28742 13.1074 8.36251 12.925C8.4376 12.7426 8.54806 12.5769 8.68751 12.4375C8.82696 12.298 8.99265 12.1876 9.17501 12.1125C9.35737 12.0374 9.5528 11.9992 9.75001 12H14.25C14.4472 12.0008 14.6427 11.9626 14.825 11.8875C15.0074 11.8124 15.1731 11.702 15.3125 11.5625C15.452 11.4231 15.5624 11.2574 15.6375 11.075C15.7126 10.8926 15.7508 10.6972 15.75 10.5V10" stroke="white" stroke-linecap="round" stroke-linejoin="round"/>
<path d="M8.25 10V14" stroke="white" stroke-linecap="round" stroke-linejoin="round"/>
</svg>
