<svg width="18" height="18" viewBox="0 0 18 18" fill="none" xmlns="http://www.w3.org/2000/svg">
<path d="M4.61129 15.6898C4.99123 15.9396 5.39372 16.1578 5.81505 16.3409C6.72862 14.8042 9.79538 12.2964 14.7538 14.5582C15.3778 13.9124 15.8941 13.1618 16.2737 12.3354C16.3831 12.0972 16.4812 11.8526 16.5672 11.6024C10.4121 10.0859 5.63783 13.4099 4.02008 15.2614C4.21028 15.4129 4.40754 15.5559 4.61129 15.6898Z" fill="#2A313A"/>
<path d="M1.72635 12.3354C2.10593 13.1618 2.6222 13.9124 3.2462 14.5582C4.02551 12.4485 7.86627 8.44096 16.9949 9.28916C16.9983 9.19319 17 9.0968 17 9C17 7.42866 16.547 5.96314 15.7644 4.72691C11.5631 3.28755 5.13758 3.91299 2.45 4.40562C2.26243 4.67254 2.09075 4.95145 1.93636 5.24096C5.06199 5.10174 11.3197 5.17671 11.3454 6.59036C11.3775 8.35743 2.4527 8.47406 1.72635 12.3354Z" fill="#2A313A"/>
<path d="M12.7618 1.93781C11.6404 1.33928 10.3598 1 9 1C6.95805 1 5.09478 1.76503 3.68117 3.0241C5.49695 2.52208 10.1952 1.84535 14.4618 3.1546C13.9528 2.67879 13.3816 2.26869 12.7618 1.93781Z" fill="#2A313A"/>
<path d="M1.72635 12.3354C1.26001 11.3201 1 10.1904 1 9C1 7.64126 1.33873 6.36163 1.93636 5.24096M1.72635 12.3354C2.10593 13.1618 2.6222 13.9124 3.2462 14.5582M1.72635 12.3354C2.4527 8.47406 11.3775 8.35743 11.3454 6.59036C11.3197 5.17671 5.06199 5.10174 1.93636 5.24096M5.81505 16.3409C6.79101 16.7649 7.86805 17 9 17C10.1319 17 11.209 16.7649 12.185 16.3409C13.1566 15.9187 14.0281 15.3093 14.7538 14.5582M5.81505 16.3409C5.39372 16.1578 4.99123 15.9396 4.61129 15.6898C4.40754 15.5559 4.21028 15.4129 4.02008 15.2614M5.81505 16.3409C6.72862 14.8042 9.79538 12.2964 14.7538 14.5582M14.7538 14.5582C15.3778 13.9124 15.8941 13.1618 16.2736 12.3354C16.3831 12.0972 16.4812 11.8526 16.5672 11.6024M4.02008 15.2614C5.63783 13.4099 10.4121 10.0859 16.5672 11.6024M4.02008 15.2614C3.74701 15.0439 3.48849 14.809 3.2462 14.5582M16.5672 11.6024C16.8179 10.8732 16.9662 10.0964 16.9949 9.28916M3.2462 14.5582C4.02551 12.4485 7.86627 8.44096 16.9949 9.28916M16.9949 9.28916C16.9983 9.19319 17 9.0968 17 9C17 7.42866 16.547 5.96314 15.7644 4.72691M3.68117 3.0241C3.57922 3.1149 3.47961 3.20827 3.38244 3.30412C3.0398 3.64208 2.7275 4.01074 2.45 4.40562M3.68117 3.0241C5.09478 1.76503 6.95805 1 9 1C10.3598 1 11.6404 1.33928 12.7618 1.93781C13.3816 2.26869 13.9528 2.67879 14.4618 3.1546M3.68117 3.0241C5.49695 2.52208 10.1952 1.84535 14.4618 3.1546M14.4618 3.1546C14.73 3.40524 14.9808 3.67412 15.2125 3.95925C15.411 4.20361 15.5954 4.45991 15.7644 4.72691M2.45 4.40562C5.13758 3.91299 11.5631 3.28755 15.7644 4.72691M2.45 4.40562C2.26243 4.67254 2.09075 4.95145 1.93636 5.24096" stroke="#F7F8F9" stroke-linejoin="round"/>
<path d="M9 17C10.1319 17 11.209 16.7649 12.185 16.3409C13.1566 15.9188 14.0281 15.3093 14.7538 14.5582C9.79538 12.2964 6.72863 14.8042 5.81505 16.3409C6.79101 16.7649 7.86805 17 9 17Z" fill="#2A313A"/>
<path d="M4.02008 15.2614C5.63783 13.4099 10.4121 10.086 16.5672 11.6024C16.8179 10.8732 16.9662 10.0964 16.9949 9.28916C7.86627 8.44097 4.02551 12.4485 3.2462 14.5582C3.48849 14.809 3.74701 15.044 4.02008 15.2614Z" fill="#2A313A"/>
<path d="M1 9.00001C1 10.1904 1.26001 11.3201 1.72635 12.3354C2.4527 8.47406 11.3775 8.35744 11.3454 6.59037C11.3197 5.17671 5.06199 5.10175 1.93636 5.24097C1.33873 6.36164 1 7.64127 1 9.00001Z" fill="#2A313A"/>
<path d="M3.68117 3.0241C3.57922 3.11491 3.47961 3.20828 3.38245 3.30412C3.0398 3.64209 2.7275 4.01074 2.45 4.40563C5.13758 3.91299 11.5631 3.28756 15.7644 4.72691C15.5954 4.45992 15.411 4.20362 15.2125 3.95925C14.9808 3.67412 14.73 3.40525 14.4618 3.15461C10.1952 1.84536 5.49695 2.52208 3.68117 3.0241Z" fill="#2A313A"/>
<path d="M9 17C10.1319 17 11.209 16.7649 12.185 16.3409C13.1566 15.9188 14.0281 15.3093 14.7538 14.5582C9.79538 12.2964 6.72863 14.8042 5.81505 16.3409C6.79101 16.7649 7.86805 17 9 17Z" stroke="#F7F8F9" stroke-linejoin="round"/>
<path d="M4.02008 15.2614C5.63783 13.4099 10.4121 10.086 16.5672 11.6024C16.8179 10.8732 16.9662 10.0964 16.9949 9.28916C7.86627 8.44097 4.02551 12.4485 3.2462 14.5582C3.48849 14.809 3.74701 15.044 4.02008 15.2614Z" stroke="#F7F8F9" stroke-linejoin="round"/>
<path d="M1 9.00001C1 10.1904 1.26001 11.3201 1.72635 12.3354C2.4527 8.47406 11.3775 8.35744 11.3454 6.59037C11.3197 5.17671 5.06199 5.10175 1.93636 5.24097C1.33873 6.36164 1 7.64127 1 9.00001Z" stroke="#F7F8F9" stroke-linejoin="round"/>
<path d="M3.68117 3.0241C3.57922 3.11491 3.47961 3.20828 3.38245 3.30412C3.0398 3.64209 2.7275 4.01074 2.45 4.40563C5.13758 3.91299 11.5631 3.28756 15.7644 4.72691C15.5954 4.45992 15.411 4.20362 15.2125 3.95925C14.9808 3.67412 14.73 3.40525 14.4618 3.15461C10.1952 1.84536 5.49695 2.52208 3.68117 3.0241Z" stroke="#F7F8F9" stroke-linejoin="round"/>
</svg>
